<svg version="1.1" xmlns="http://www.w3.org/2000/svg" style="display: block;" viewBox="0 0 2048 2048" width="1024" height="1024">
<path transform="translate(0,0)" fill="rgb(255,255,255)" d="M 0 0 L 2048 0 L 2048 2048 L 0 2048 L 0 0 z"/>
<path transform="translate(0,0)" fill="rgb(50,50,68)" d="M 1233.11 210.419 C 1297.16 204.367 1368.46 221.593 1418.26 262.996 C 1424.97 268.572 1454.34 298.713 1457.69 300.271 C 1460.42 301.546 1467.72 300.873 1471.22 301.81 C 1489.85 306.803 1515.36 349.825 1525.2 366.969 C 1556.43 351.192 1590.69 342.324 1625.66 340.964 C 1699.25 337.78 1775.55 360.764 1830.3 411.194 C 1878.57 455.983 1907.4 517.877 1910.64 583.645 C 1910.57 583.339 1910.5 583.033 1910.42 582.728 C 1902.82 552.098 1876.11 494.29 1848.79 477.848 C 1833.94 468.914 1816.94 467.933 1800.1 469.63 C 1725.97 477.101 1639.58 544.319 1576.28 582.598 C 1553.46 596.4 1531.04 610.565 1504.84 617.024 C 1494.81 627.984 1485.05 636.513 1472.9 644.971 C 1483.79 674.236 1467.89 706.736 1456.99 733.902 C 1463.61 749.762 1471.92 764.841 1478.16 780.894 C 1503.25 847.26 1524.8 914.911 1542.73 983.561 C 1573.19 1098.93 1596.1 1217.07 1602.35 1336.43 C 1603.56 1359.45 1603.2 1382.52 1603.11 1405.57 C 1602.74 1497.71 1592.97 1571.57 1530.52 1644.78 C 1520.55 1656.47 1509.11 1666.52 1498.23 1677.31 C 1509.9 1680.38 1521.77 1682.62 1533.42 1685.86 C 1578.65 1698.44 1628.19 1718.68 1661.24 1752.81 C 1669.84 1761.69 1676.74 1771.63 1683.35 1782.03 C 1672.31 1782.14 1661.28 1781.92 1650.25 1781.36 C 1655.62 1787.73 1660.88 1794.09 1665.8 1800.81 C 1638.28 1802.85 1610.95 1806.23 1583.36 1807.84 C 1513.2 1811.92 1444.69 1809.85 1374.85 1802.07 C 1351.17 1798.31 1327.7 1795.62 1304.2 1790.55 C 1290.65 1787.62 1272.2 1779.72 1259.12 1779.21 C 1247.59 1778.77 1231.05 1783.6 1219.1 1785.24 C 1198.37 1788.07 1177.4 1789.68 1156.56 1791.63 C 1164.75 1799 1174.04 1805.24 1182.32 1812.6 C 1213.56 1840.37 1225.74 1869.38 1236.08 1908.77 C 1228.75 1906.41 1221.34 1904.28 1213.97 1902.06 C 1218.5 1913.69 1222.08 1925.4 1225.33 1937.44 C 1203.06 1934.81 1180.76 1929.82 1158.87 1925.02 C 1162.29 1934.45 1165.73 1943.76 1168.03 1953.55 C 1093.84 1940.11 991.727 1908.62 929.63 1865.28 C 892.543 1839.39 862.415 1798.62 854.503 1753.51 C 836.444 1746.14 816.813 1741.04 798.159 1735.17 C 729.274 1713.52 658.198 1697.23 591.002 1670.54 C 569.334 1661.93 545.998 1652.57 526.697 1639.38 C 522.54 1636.54 517.996 1633.65 517.529 1628.11 C 517.223 1624.49 519.186 1621.49 522.365 1619.89 C 531.482 1615.31 545.719 1614.77 555.899 1612.82 C 604.307 1603.53 663.745 1594.86 699.378 1558 C 683.661 1514.25 673.965 1468.57 670.554 1422.21 C 668.504 1391.15 669.411 1360.29 671.309 1329.25 C 679.941 1188.07 724.131 1076.16 779.939 948.39 C 804.505 892.148 830.833 836.553 850.087 778.168 C 868.196 723.255 872.36 672.025 882.021 615.866 C 900.068 510.948 946.599 402.987 1017.27 322.712 C 1072.16 260.367 1149.33 215.976 1233.11 210.419 z"/>
<path transform="translate(0,0)" fill="rgb(255,255,255)" d="M 1229.15 280.377 C 1266.77 276.494 1303.39 289.866 1332.96 312.67 C 1346.86 323.424 1359.33 335.906 1370.07 349.813 C 1395.97 383.156 1401.93 411.611 1407.13 452.552 C 1389.55 478.733 1371.44 503.987 1355.11 531.062 L 1355.62 531.828 C 1381.78 571.175 1419.79 605.223 1467.11 614.7 C 1453.65 630.796 1438.24 646.128 1422.86 660.375 C 1409.08 673.136 1393.14 685.27 1382.37 700.706 C 1384.56 698.908 1386.83 697.208 1389.18 695.613 C 1400.95 687.67 1444.5 659.177 1457.05 662.854 C 1459.9 663.689 1461.57 664.933 1463.03 667.531 C 1471.45 682.495 1441.75 732.064 1446.44 756.687 C 1452.86 790.429 1468.4 826.45 1479.62 859.2 C 1491.05 892.61 1500.58 927.004 1510.51 960.897 C 1524.38 1008.23 1535.35 1057.13 1544.97 1105.5 C 1564.01 1201.21 1576.64 1297.03 1577.02 1394.79 C 1577.21 1444.86 1576.13 1494.2 1559.01 1541.96 C 1532.76 1615.24 1477.22 1665.74 1408.06 1698.32 C 1312.11 1743.53 1201.79 1764.96 1095.9 1761.58 C 1072.93 1760.85 1045.64 1759.83 1024.01 1751.88 C 957.378 1727.41 882.67 1622.03 853.987 1559.54 C 844.713 1538.16 836.305 1516.69 830.757 1494 C 816.553 1435.91 825.685 1376.42 846.326 1321.19 C 851.776 1306.61 857.371 1292 865.433 1278.63 C 873.782 1294.26 881.791 1310.09 891.482 1324.95 C 906.446 1347.9 925.52 1369.58 943.532 1390.18 C 964.977 1414.69 987.829 1437.52 1006.02 1464.72 C 1014.78 1477.71 1022.07 1491.64 1027.74 1506.25 C 1036.27 1528.04 1042.59 1552.42 1055.61 1572.06 C 1061.5 1580.94 1068.26 1588.14 1079.17 1590.1 C 1088.9 1591.85 1098.59 1588.92 1106.57 1583.33 C 1140.01 1559.87 1168.09 1473.65 1174.63 1433.6 C 1188.25 1350.12 1175.41 1258.88 1148.03 1179.38 C 1135.14 1141.95 1118.86 1106.53 1101.59 1071 C 1074.18 1013.42 1041.67 958.399 1004.46 906.605 C 1006.77 901.994 1009.45 897.548 1012.15 893.16 C 1056.19 821.586 1138.2 776.543 1217.92 757.399 C 1220.67 750.522 1222.73 743.328 1224.96 736.265 C 1204.64 734.77 1184.52 731.251 1164.9 725.761 C 1112.99 711.305 1040.94 685.124 1013.46 635.555 C 1001.17 613.386 1000.16 587.255 1007.34 563.233 C 1016.73 531.868 1040.88 503.835 1067.93 486.084 C 1078.02 479.462 1089 474.153 1099.64 468.458 C 1097.96 461.256 1096.2 454.018 1095.18 446.686 C 1089.87 408.177 1104.45 373.202 1127.61 343.008 C 1152.79 310.169 1187.57 285.771 1229.15 280.377 z"/>
<path transform="translate(0,0)" fill="rgb(50,50,68)" d="M 1247.29 654.88 C 1260.05 655.591 1276.02 667.228 1286.18 674.287 C 1294.57 680.119 1326.88 703.794 1328.53 713.011 L 1327.35 714.125 C 1314.14 711.358 1282.26 679.05 1261.24 674.146 C 1259.22 673.676 1258.64 673.325 1256.86 674.51 C 1258.02 676.998 1259.74 678.304 1261.89 679.916 C 1266.13 683.101 1271.11 685.481 1275.59 688.347 C 1291.78 698.72 1311.54 711.847 1324.27 726.155 C 1323.76 732.752 1323.02 739.238 1321.8 745.747 C 1319.33 758.929 1314.89 771.989 1303.15 779.742 C 1291 787.763 1233.5 810.414 1220.55 807.005 C 1217.6 806.228 1215.14 804.573 1213.81 801.746 C 1209.76 793.081 1219.68 776.256 1223.21 768.517 C 1230.43 752.725 1236.65 735.377 1238.06 717.926 C 1239.22 703.589 1233.77 674.314 1238.59 662.689 C 1240.38 658.367 1243.15 656.695 1247.29 654.88 z"/>
<path transform="translate(0,0)" fill="rgb(50,50,68)" d="M 1254.54 316.158 C 1270.26 314.777 1285.29 316.27 1299.46 323.614 C 1329.17 338.997 1340.53 366.398 1349.92 396.636 C 1329.16 370.198 1314.44 340.545 1278.63 332.774 C 1263.11 329.405 1248.16 333.016 1235.04 341.517 C 1209.97 357.75 1196.31 385.784 1190.47 414.287 C 1183.65 447.564 1185.74 490.345 1205.32 519.306 C 1217.94 537.963 1237.52 549.361 1259.33 553.732 C 1286.88 557.065 1311.89 549.342 1333.39 531.95 C 1339.87 526.714 1345.4 520.413 1351.97 515.365 C 1352.21 515.186 1352.44 515.012 1352.68 514.836 L 1349.39 520.105 C 1333.4 545.425 1312.32 558.716 1283.09 565.136 C 1261.33 569.944 1238.54 565.77 1219.9 553.56 C 1195.04 537.526 1181.29 511.36 1175.29 483.015 C 1166.36 440.77 1173.96 393.011 1197.88 356.793 C 1211.65 335.945 1229.74 321.198 1254.54 316.158 z"/>
<path transform="translate(0,0)" fill="rgb(50,50,68)" d="M 1292.32 401.047 C 1297.35 400.789 1301.97 400.749 1306.69 402.747 C 1316.31 406.821 1322.3 415.539 1326.03 424.949 C 1334.53 446.376 1333.42 471.872 1324.34 492.907 C 1318.8 505.76 1311.09 515.003 1297.86 520.256 C 1292.76 521.141 1288.49 520.917 1283.62 518.99 C 1274.14 515.231 1268.54 506.569 1264.92 497.426 C 1256.25 475.562 1257.97 446.811 1267.54 425.5 C 1272.82 413.733 1280.21 405.712 1292.32 401.047 z"/>
<path transform="translate(0,0)" fill="rgb(255,255,255)" d="M 1288.14 413.747 C 1291.37 413.791 1293.12 413.775 1295.38 416.297 C 1298.45 419.732 1298.82 425.812 1298.3 430.139 C 1297.33 438.16 1294.7 444.776 1288.2 449.706 C 1285.17 449.191 1282.82 448.436 1280.83 445.967 C 1277.45 441.761 1276.75 436.164 1277.59 430.977 C 1278.87 423.13 1281.87 418.462 1288.14 413.747 z"/>
<path transform="translate(0,0)" fill="rgb(50,50,68)" d="M 1447.75 674.958 C 1450.73 675.033 1452 674.592 1454.36 676.514 C 1458.78 688.003 1443.12 719.258 1438.92 731.502 C 1436.03 739.912 1433.75 748.732 1431.73 757.389 C 1428.03 773.281 1428.63 789.367 1424.12 805.141 C 1423.48 805.375 1422.87 805.724 1422.2 805.841 C 1414.88 807.108 1401.93 799.276 1395.19 796.063 C 1389.78 793.623 1382.65 791.143 1378.12 787.331 C 1376.52 785.98 1375.55 785.338 1375.28 783.094 C 1374.45 776.139 1378.26 765.599 1379.77 758.504 C 1382.73 744.628 1385.03 730.11 1383.38 715.913 L 1383.21 714.551 C 1401.14 699.577 1426.49 684.237 1447.75 674.958 z"/>
<path transform="translate(0,0)" fill="rgb(50,50,68)" d="M 1333.11 711.96 C 1346.67 711.786 1359.73 713.706 1373.42 712.647 C 1377.16 732.578 1373.48 759.566 1362.18 776.686 C 1360.79 777.19 1359.47 777.611 1358.04 777.969 C 1349 780.235 1334.61 780.57 1326.46 775.825 C 1325.17 773.877 1324.7 773.437 1324.95 771.013 C 1325.47 766.11 1327.59 760.747 1328.86 755.916 C 1332.2 743.307 1335.84 725.784 1333.31 712.875 C 1333.25 712.568 1333.18 712.265 1333.11 711.96 z"/>
<path transform="translate(0,0)" fill="rgb(50,50,68)" d="M 866.513 1361.7 C 867.776 1368.27 866.011 1377.89 865.706 1384.8 C 864.749 1406.43 863.384 1428.12 862.982 1449.77 C 862.797 1459.69 864.837 1499.39 862.799 1506.32 C 861.252 1504.86 860.753 1501.08 860.139 1498.97 C 857.962 1491.02 855.819 1483.08 854.357 1474.96 C 849.025 1445.33 848.722 1387.38 866.513 1361.7 z"/>
<path transform="translate(0,0)" fill="rgb(50,50,68)" d="M 1162.33 801.109 L 1165.08 802.292 C 1164.36 808.89 1125.3 838.347 1117.9 845.596 C 1110.31 853.027 1103.55 860.967 1097.01 869.324 L 1095.11 869.692 L 1094.13 868.023 C 1094.23 859.887 1098.43 850.89 1102.67 844.015 C 1115.34 823.456 1138.91 806.662 1162.33 801.109 z"/>
<path transform="translate(0,0)" fill="rgb(50,50,68)" d="M 1355.27 1012.49 C 1356.32 1012.59 1356.92 1012.6 1357.9 1012.84 C 1363.56 1014.23 1370.5 1025.33 1373.15 1030.22 C 1380.66 1044.07 1386.41 1062.67 1381.8 1078.35 C 1380.78 1078.26 1379.65 1078.16 1378.79 1077.52 C 1374.49 1074.31 1360.57 1037.72 1358.84 1031.68 C 1357.06 1025.41 1355.86 1018.98 1355.27 1012.49 z"/>
<path transform="translate(0,0)" fill="rgb(50,50,68)" d="M 1145.77 852.707 C 1147.23 852.709 1148.25 852.994 1149.65 853.373 L 1150.11 855.617 C 1145.72 864.283 1138.62 872.1 1132.89 879.952 L 1107.9 914.871 C 1106.67 915.629 1107.45 915.339 1105.45 915.281 C 1104.63 912.623 1104.82 910.526 1105.34 907.846 C 1109.76 885.034 1126.87 865.233 1145.77 852.707 z"/>
<path transform="translate(0,0)" fill="rgb(50,50,68)" d="M 1299.29 1022.44 C 1304.73 1024.52 1308.46 1028.74 1311.18 1033.79 C 1320.01 1050.19 1319.39 1073.34 1313.84 1090.63 C 1312.14 1092.56 1313.14 1091.88 1310.92 1092.77 C 1307.95 1089 1298.83 1029.61 1299.29 1022.44 z"/>
<path transform="translate(0,0)" fill="rgb(50,50,68)" d="M 1332.06 1102.47 C 1336.38 1104.02 1338.07 1106.51 1340.01 1110.6 C 1348.1 1127.58 1345.35 1149.4 1339.07 1166.44 C 1338.55 1167.36 1337.59 1168.29 1336.89 1169.1 L 1335.3 1168.83 C 1335.08 1168.46 1334.84 1168.11 1334.63 1167.73 C 1332.22 1163.33 1330.42 1108.88 1332.06 1102.47 z"/>
<path transform="translate(0,0)" fill="rgb(50,50,68)" d="M 1320.07 982.539 C 1323.94 984.547 1326.87 987.626 1329.33 991.181 C 1337.43 1002.9 1341.05 1016.55 1338.62 1030.65 L 1336.61 1029.52 C 1331.93 1018.94 1319.71 993.076 1320.07 982.539 z"/>
<path transform="translate(0,0)" fill="rgb(50,50,68)" d="M 1352.01 1065.07 C 1355.17 1065.98 1356.47 1067.07 1358.06 1069.88 C 1363.92 1080.24 1366.38 1096.84 1363.47 1108.35 C 1362.59 1108.55 1361.8 1107.99 1360.97 1107.66 C 1351.97 1096.41 1352.1 1078.74 1352.01 1065.07 z"/>
<path transform="translate(0,0)" fill="rgb(255,255,255)" d="M 969.486 869.999 C 986.67 890.013 1005.78 929.594 1018.07 953.811 C 1047.17 1011.15 1073.21 1071.23 1092.23 1132.71 C 1096.85 1147.67 1100.32 1162.89 1104.36 1178 C 1125.74 1257.9 1136.63 1326.32 1134.46 1409.3 C 1133.51 1445.83 1130.94 1484.68 1119.36 1519.51 C 1115.06 1532.45 1107.78 1549.24 1094.68 1555.25 C 1091.1 1556.9 1087.17 1557.32 1083.5 1555.67 C 1072.43 1550.69 1067.08 1530.47 1062.99 1519.89 C 1032.59 1441.95 1001.72 1414.56 948.911 1353.54 C 936.871 1339.63 926.01 1324.66 915.471 1309.6 C 867.735 1241.36 852.929 1184.06 858.931 1101.64 C 865.91 1005.8 895.771 933.798 969.486 869.999 z"/>
<path transform="translate(0,0)" fill="rgb(50,50,68)" d="M 1053.78 1227.64 C 1060.36 1229.68 1065.35 1235.81 1068.49 1241.7 C 1074.84 1253.6 1077.13 1269.84 1073.32 1282.81 C 1071.41 1283.69 1071.31 1283.67 1069.24 1283.23 C 1063.34 1276.05 1054.38 1237.95 1053.78 1227.64 z"/>
<path transform="translate(0,0)" fill="rgb(50,50,68)" d="M 1065.68 1188.33 C 1071.36 1189.61 1075.93 1195.79 1079.03 1200.3 C 1087.34 1212.39 1093.35 1229.52 1090.53 1244.12 C 1089.19 1243.94 1088.41 1243.47 1087.22 1242.85 C 1083.32 1237.29 1067.71 1201.01 1065.76 1194.19 C 1065.19 1192.2 1065.44 1190.35 1065.68 1188.33 z"/>
<path transform="translate(0,0)" fill="rgb(50,50,68)" d="M 1088.21 1280.38 C 1093.07 1282.23 1094.66 1284.9 1096.82 1289.43 C 1101 1298.19 1102.95 1310.08 1099.51 1319.34 C 1098.07 1318.86 1098.05 1319.1 1097.17 1318.03 C 1091.64 1311.25 1087.48 1288.76 1088.21 1280.38 z"/>
<path transform="translate(0,0)" fill="rgb(255,255,255)" d="M 1624.3 358.5 C 1640.55 356.868 1658.59 357.669 1674.73 359.609 C 1738.33 367.256 1802.8 396.708 1842.89 447.908 C 1835.09 444.121 1827.22 440.62 1819.07 437.663 C 1719.51 401.567 1666.4 448.339 1580.2 489.019 C 1532.54 510.944 1480.34 527.242 1427.44 527.262 C 1411.06 527.268 1394.8 525.322 1378.53 523.629 C 1390.53 503.364 1403.31 483.347 1418.72 465.478 C 1470.31 405.661 1545.15 364.322 1624.3 358.5 z"/>
<path transform="translate(0,0)" fill="rgb(255,255,255)" d="M 1253.3 230.45 C 1273.42 229.809 1295.15 231.878 1314.94 235.538 C 1355.56 243.051 1388.56 257.694 1412.29 292.403 C 1382.97 270.291 1336.73 250.65 1300.02 244.935 C 1307.72 251.976 1314.98 256.473 1321.24 265.145 C 1296.56 255.553 1269.21 248.099 1242.64 247.955 C 1251.54 253.597 1259.72 259.201 1265.64 268.087 C 1255.69 265.592 1245.95 262.246 1235.94 260.022 C 1203.09 252.727 1172.72 257.443 1142.76 272.224 C 1107.88 289.435 1079.44 314.648 1053.72 343.406 C 980.911 424.791 944.734 519.083 923.694 625.142 C 918.94 649.107 916.918 673.373 913.457 697.53 C 908.349 734.655 899.805 771.226 887.936 806.772 C 880.346 828.784 870.784 849.983 861.972 871.516 C 852.561 894.514 843.775 917.694 833.292 940.245 C 806.379 998.138 777.113 1055.66 756.786 1116.34 C 751.658 1131.65 747.656 1147.42 743.44 1163 C 736.21 1189.74 729.245 1216.55 724.499 1243.85 C 705.439 1353.49 707.702 1487.47 758.046 1588.72 C 779.361 1627.99 803.153 1662.53 835.351 1693.76 C 847.122 1705.18 859.77 1715.62 871.834 1726.71 C 850.171 1714.69 829.16 1698.89 810.967 1682.09 C 729.075 1606.46 696.791 1504.32 692.774 1395.35 C 687.585 1254.57 732.501 1115.62 788.462 988.245 C 816.791 923.766 847.952 860.418 870.337 793.519 C 879.778 765.302 886.7 735.46 891.435 706.101 C 895.315 682.038 897.771 657.766 901.89 633.73 C 920.822 523.252 965.814 410.964 1043.07 328.272 C 1100.94 266.337 1168.09 233.298 1253.3 230.45 z"/>
<path transform="translate(0,0)" fill="rgb(255,255,255)" d="M 1747.72 440.432 C 1771.3 439.237 1798.22 444.836 1819.98 453.991 C 1753.41 444.633 1658.14 507.05 1604.15 541.975 C 1583.77 555.159 1563.51 569.717 1541.95 580.911 C 1513.8 595.531 1484.98 603.125 1454.05 593.306 C 1425.71 581.588 1400.79 561.349 1379.38 539.642 C 1461.5 554.625 1541.53 531.934 1613.52 492.473 C 1656.79 468.751 1696.79 443.585 1747.72 440.432 z"/>
<path transform="translate(0,0)" fill="rgb(255,255,255)" d="M 1033.57 1806.11 C 1034.85 1805.93 1035.48 1805.79 1036.69 1805.79 C 1047.77 1805.78 1081.26 1840.4 1089.43 1848.82 C 1066.7 1856.83 1044.41 1866.5 1030.26 1886.9 C 1010 1880.71 989.847 1869.63 970.872 1860.24 C 972.729 1856.21 974.801 1852.3 977.081 1848.5 C 991.073 1824.74 1007.09 1812.96 1033.57 1806.11 z"/>
<path transform="translate(0,0)" fill="rgb(255,255,255)" d="M 961.236 1779.9 C 968.158 1778.94 1046.19 1789.44 1049.45 1791.23 C 1049.12 1792.52 1049.41 1792.64 1048.41 1793.22 C 1044.46 1795.52 1036.94 1793.77 1032.57 1793.2 C 1012.44 1801.89 997.396 1809.53 981.997 1825.64 C 973.879 1835.2 967.993 1844.63 962.989 1856.13 C 947.738 1848.57 933.53 1837.83 920.074 1827.46 C 930.769 1805.84 940.556 1792.48 961.236 1779.9 z"/>
<path transform="translate(0,0)" fill="rgb(255,255,255)" d="M 1432.73 1727.45 C 1444.43 1726.72 1456.29 1728.11 1467.92 1729.26 C 1461.75 1747.92 1455.89 1765.19 1455.6 1785.06 C 1447.24 1784.79 1438.95 1784.35 1430.62 1783.61 C 1417.15 1782.06 1403.8 1780.48 1390.42 1778.19 C 1395.45 1761.05 1400.99 1745.65 1410.38 1730.29 C 1417.8 1728.62 1425.16 1728.03 1432.73 1727.45 z"/>
<path transform="translate(0,0)" fill="rgb(255,255,255)" d="M 1480.44 1729.94 C 1498.07 1733.35 1525.09 1739.06 1541.03 1745.68 C 1535.25 1759.09 1530.06 1771.77 1527.58 1786.23 C 1506.78 1786.7 1485.96 1786.58 1465.17 1785.88 C 1466.48 1767.47 1471.02 1745.97 1480.44 1729.94 z"/>
<path transform="translate(0,0)" fill="rgb(255,255,255)" d="M 1095.91 1858 L 1097.16 1858.23 C 1110.76 1869.9 1131.12 1906.21 1138.66 1923.04 C 1124.6 1919.26 1110.53 1914.74 1096.76 1909.96 C 1077.49 1903.86 1058.41 1897.16 1039.55 1889.88 C 1055.76 1873.81 1074.96 1865.97 1095.91 1858 z"/>
<path transform="translate(0,0)" fill="rgb(255,255,255)" d="M 1146.72 1847.3 C 1148.79 1847.05 1151.64 1846.51 1153.6 1847.38 C 1169.83 1854.6 1191.03 1893.54 1199.06 1909.5 C 1191.43 1907.69 1183.84 1905.76 1176.28 1903.71 C 1166.65 1900.66 1156.93 1897.89 1147.14 1895.41 C 1137.72 1881.96 1128.41 1868.63 1117.31 1856.48 C 1127.09 1851.94 1136.08 1849.13 1146.72 1847.3 z"/>
<path transform="translate(0,0)" fill="rgb(255,255,255)" d="M 709.178 1582.95 C 712.938 1586.05 715.23 1593.15 717.332 1597.57 C 709.279 1602.69 701.873 1608.73 693.571 1613.46 C 657.374 1634.09 613.231 1645.21 571.789 1639.66 C 566.581 1638.89 561.403 1637.69 556.243 1636.64 C 604.389 1633.93 672.363 1613.33 709.178 1582.95 z"/>
<path transform="translate(0,0)" fill="rgb(255,255,255)" d="M 1068.13 1799.29 C 1074.33 1798.65 1080.94 1798.19 1087.1 1799.41 C 1108.15 1803.58 1128.85 1824.39 1145.52 1837.34 C 1138.36 1838.24 1131.63 1839.51 1124.76 1841.73 C 1119.04 1843.85 1113.54 1846.6 1108.02 1849.17 C 1092.08 1830.87 1072.6 1815.56 1051.92 1802.99 C 1057.27 1801.46 1062.67 1800.38 1068.13 1799.29 z"/>
<path transform="translate(0,0)" fill="rgb(255,255,255)" d="M 1553.35 1746.55 C 1578.78 1756.07 1601.54 1766 1623.88 1781.89 C 1617 1782.05 1610.12 1782.28 1603.25 1782.6 C 1581.37 1783.51 1559.51 1784.63 1537.66 1785.96 C 1540.39 1771.91 1546.73 1759.13 1553.35 1746.55 z"/>
<path transform="translate(0,0)" fill="rgb(255,255,255)" d="M 757.623 1360.36 C 759.339 1360.9 760.34 1361.37 761.722 1362.6 C 770.167 1370.15 772.263 1389.08 773.164 1399.8 C 774.355 1413.94 774.939 1435.01 765.278 1446.45 C 762.664 1446.12 760.551 1445.9 758.42 1444.15 C 749.739 1437 748.527 1413.05 748.08 1402.55 C 747.506 1389.01 747.965 1370.79 757.623 1360.36 z"/>
<path transform="translate(0,0)" fill="rgb(255,255,255)" d="M 882.805 1762.87 C 904.165 1768 925.68 1771.11 947.12 1775.65 C 938.793 1782.53 931.951 1789.5 925.558 1798.23 C 920.906 1805.04 916.926 1812.38 912.765 1819.5 C 898.18 1804.43 888.492 1782.8 882.805 1762.87 z"/>
<path transform="translate(0,0)" fill="rgb(255,255,255)" d="M 1470.73 320.542 C 1471.27 320.85 1471.82 321.15 1472.35 321.467 C 1488.58 331.042 1504.99 356.425 1509.74 374.364 L 1496.74 379.993 C 1493.63 373.097 1490.55 366.184 1487.51 359.256 C 1486.59 357.905 1487.23 358.525 1485.37 357.65 C 1480.68 362.731 1481.07 382.713 1480.76 389.902 L 1469.3 396.009 C 1467.87 375.178 1461.76 339.285 1470.73 320.542 z"/>
<path transform="translate(0,0)" fill="rgb(255,255,255)" d="M 1392.4 1736.85 L 1393.64 1737.19 C 1393.53 1739.37 1393.78 1738.75 1393.03 1740.47 C 1387.73 1752.67 1383.2 1764.56 1379.29 1777.27 C 1358.73 1775.57 1338.54 1771.97 1318.24 1768.35 C 1313.87 1767.38 1309.36 1766.85 1304.93 1766.19 C 1335.33 1758.73 1363.83 1749.76 1392.4 1736.85 z"/>
<path transform="translate(0,0)" fill="rgb(255,255,255)" d="M 1499.32 1702.91 C 1510.19 1706.34 1553.74 1715.06 1559.33 1722.29 C 1554.92 1725.98 1551.18 1729.4 1547.86 1734.12 L 1547.02 1735.32 C 1543.44 1736.01 1494.41 1722.72 1486.86 1720.88 C 1490.54 1714.58 1495.01 1708.78 1499.32 1702.91 z"/>
<path transform="translate(0,0)" fill="rgb(255,255,255)" d="M 779.265 1090.44 C 780.918 1091.38 782.023 1092.18 783.286 1093.64 C 785.71 1096.46 785.809 1100.28 785.5 1103.79 C 784.225 1118.26 772.006 1152.65 760.766 1161.73 C 759.51 1161.27 758.252 1160.54 757.051 1159.94 C 754.537 1156.58 753.937 1153.26 754.093 1149.12 C 754.696 1133.07 767.741 1101.19 779.265 1090.44 z"/>
<path transform="translate(0,0)" fill="rgb(255,255,255)" d="M 809.535 1073.39 C 811.372 1074.03 812.019 1074.49 813.476 1075.7 C 817.377 1083.27 815.612 1092.79 813.905 1100.81 C 811.137 1113.8 805.575 1133.57 793.853 1141.09 C 792.893 1140.41 791.759 1139.68 790.915 1138.84 C 788.144 1136.09 787.44 1132.31 787.321 1128.54 C 786.778 1111.36 797.673 1085.63 809.535 1073.39 z"/>
<path transform="translate(0,0)" fill="rgb(255,255,255)" d="M 767.775 1465.3 C 769.939 1465.61 771.196 1465.75 772.991 1467.13 C 779.808 1472.34 782.534 1486.92 783.819 1495.07 C 785.538 1505.97 787.859 1522.29 781.067 1531.68 C 779.953 1531.35 779.28 1531.18 778.177 1530.66 C 773.124 1528.26 770.336 1522.23 768.536 1517.25 C 763.5 1503.3 761.396 1478.97 767.775 1465.3 z"/>
<path transform="translate(0,0)" fill="rgb(255,255,255)" d="M 738.031 1440.52 C 740.227 1442.39 742.116 1444.81 743.669 1447.24 C 751.147 1458.89 756.689 1486.72 752.755 1500.01 C 751.806 1503.22 749.931 1503.88 747.274 1505.48 C 745.806 1504.85 744.312 1504.22 743.096 1503.16 C 736.782 1497.63 734.287 1483.81 733.1 1475.83 C 731.338 1463.98 730.55 1450.57 738.031 1440.52 z"/>
<path transform="translate(0,0)" fill="rgb(255,255,255)" d="M 728.39 1342.33 C 730.241 1342.95 731.921 1343.9 733.158 1345.46 C 738.278 1351.94 737.302 1367.23 737.06 1375.21 C 736.746 1385.59 736.205 1397.93 728.267 1405.43 C 726.993 1404.67 726.774 1404.57 725.501 1403.63 C 721.44 1400.61 719.986 1394.09 719.26 1389.39 C 717.033 1374.95 719.831 1354.3 728.39 1342.33 z"/>
<path transform="translate(0,0)" fill="rgb(255,255,255)" d="M 772.017 1178.35 C 773.842 1179.09 775.157 1180.01 776.717 1181.2 C 780.728 1188.42 779.418 1198.22 778.081 1206.08 C 776.433 1215.77 773.261 1230.07 764.904 1236 C 763.878 1235.4 762.189 1234.55 761.344 1233.63 C 758.392 1230.42 757.879 1223.71 757.96 1219.55 C 758.212 1206.62 762.328 1187.34 772.017 1178.35 z"/>
<path transform="translate(0,0)" fill="rgb(255,255,255)" d="M 1568.82 1725.09 C 1585.17 1729.75 1618.11 1745.95 1631.08 1757.53 L 1630.99 1758.43 L 1626.76 1757.77 C 1603.49 1752.83 1581.65 1745.36 1559.18 1737.7 C 1562.9 1733.84 1565.79 1729.49 1568.82 1725.09 z"/>
<path transform="translate(0,0)" fill="rgb(255,255,255)" d="M 758.181 1536.27 C 759.913 1536.64 761.064 1537.01 762.551 1538.04 C 770.522 1543.55 775.374 1563.47 776.685 1572.73 C 777.523 1578.65 778.307 1583 774.511 1588.05 C 772.561 1587.7 770.597 1587.35 768.86 1586.34 C 761.497 1582.07 756.637 1566.02 755.104 1557.84 C 753.581 1549.7 753.389 1543.22 758.181 1536.27 z"/>
<path transform="translate(0,0)" fill="rgb(255,255,255)" d="M 735.165 1259.45 C 736.717 1259.59 738.645 1259.31 739.841 1260.43 C 742.911 1263.29 743.134 1269.83 743.084 1273.74 C 742.943 1284.92 740.885 1301.9 732.685 1310.01 C 730.971 1309.68 729.643 1309.45 728.111 1308.55 C 725.946 1307.28 725.275 1304.7 724.849 1302.37 C 722.423 1289.13 727.786 1270.54 735.165 1259.45 z"/>
<path transform="translate(0,0)" fill="rgb(255,255,255)" d="M 998.551 450.493 C 1000.49 450.641 1001.42 450.861 1003.05 451.941 C 1003.82 453.74 1004.13 455.172 1004.03 457.113 C 1003.37 470.124 993.332 491.61 983.845 500.477 C 982.246 500.168 981.27 500.381 980.198 499.015 C 978.231 496.509 978.307 493.416 978.538 490.391 C 979.557 477.03 988.467 459.243 998.551 450.493 z"/>
<path transform="translate(0,0)" fill="rgb(255,255,255)" d="M 1122.12 1804.39 C 1127.25 1803.78 1129.83 1804.15 1134.4 1806.55 C 1160.26 1820.11 1195.51 1854.56 1204.03 1883.12 C 1192.43 1873.76 1186.04 1857.42 1174.68 1846.96 C 1164.86 1837.92 1154.12 1829.21 1143.64 1820.92 C 1137.63 1816.16 1126.37 1810.35 1122.12 1804.39 z"/>
<path transform="translate(0,0)" fill="rgb(255,255,255)" d="M 970.582 502.572 L 973.107 503.723 C 974.176 505.242 974.492 505.282 974.565 507.272 C 975.012 519.358 963.971 550.07 955.891 558.553 L 953.026 557.712 C 951.054 555.376 950.516 553.6 950.426 550.603 C 949.995 536.143 960.504 512.854 970.582 502.572 z"/>
<path transform="translate(0,0)" fill="rgb(255,255,255)" d="M 747.36 1184.22 C 748.843 1184.62 749.64 1184.88 750.855 1185.89 C 752.92 1187.59 753.164 1191.06 753.308 1193.57 C 754.069 1206.81 750.02 1227.09 741.07 1237.09 C 740.479 1236.92 739.872 1236.81 739.296 1236.59 C 736.888 1235.68 735.862 1234.54 735.106 1232.11 C 730.945 1218.74 740.35 1195.72 747.36 1184.22 z"/>
<path transform="translate(0,0)" fill="rgb(255,255,255)" d="M 947.33 573.436 C 948.871 574.18 948.375 573.752 949.484 575.013 C 952.101 577.987 951.388 585.222 951.028 588.992 C 949.974 600.031 946.417 620.512 937.611 627.684 C 935.846 625.671 934.438 623.499 933.937 620.834 C 931.363 607.168 939.66 584.675 947.33 573.436 z"/>
<path transform="translate(0,0)" fill="rgb(255,255,255)" d="M 754.869 1290.31 C 756.055 1290.73 757.079 1291.04 758.202 1291.66 C 761.847 1293.68 763.715 1297.38 764.745 1301.27 C 767.331 1311.04 765.099 1322.77 759.945 1331.29 C 758.059 1331.19 755.873 1331.47 754.263 1330.39 C 751.594 1328.61 750.536 1325.8 749.879 1322.79 C 747.896 1313.69 749.713 1298.18 754.869 1290.31 z"/>
<path transform="translate(0,0)" fill="rgb(255,255,255)" d="M 1468.38 1698.87 C 1475.13 1698.58 1483.52 1700.89 1490.3 1701.91 C 1484.13 1706.76 1479.4 1712.17 1474.92 1718.56 L 1462.24 1717.21 C 1454.19 1716.44 1446.17 1716.14 1438.08 1715.9 C 1448.79 1711.57 1458.66 1705.05 1468.38 1698.87 z"/>
<path transform="translate(0,0)" fill="rgb(255,255,255)" d="M 885.371 828.583 C 887.971 830.993 889.12 835.23 889.395 838.683 C 890.594 853.75 878.406 868.728 869.215 879.474 L 867.073 878.041 C 864.251 870.034 881.126 837.558 885.371 828.583 z"/>
<path transform="translate(0,0)" fill="rgb(255,255,255)" d="M 803.501 1017.34 C 804.119 1017.57 804.842 1017.81 805.362 1018.23 C 807.275 1019.77 807.83 1021.51 807.773 1023.9 C 807.499 1035.26 796.841 1053.38 789.209 1061.52 C 788.255 1061.42 787.178 1060.99 786.253 1060.72 C 785.016 1059.09 784.629 1057.83 784.712 1055.76 C 785.169 1044.34 795.234 1025.11 803.501 1017.34 z"/>
<path transform="translate(0,0)" fill="rgb(255,255,255)" d="M 932.404 641.458 C 933.139 641.87 933.625 642.081 934.235 642.751 C 937.227 646.038 937.454 651.985 937.418 656.166 C 937.334 665.889 934.49 676.443 927.482 683.368 C 926.958 683.111 926.404 682.907 925.91 682.595 C 923.724 681.213 923.069 679.628 922.76 677.146 C 921.409 666.272 925.44 649.924 932.404 641.458 z"/>
<path transform="translate(0,0)" fill="rgb(255,255,255)" d="M 899.414 790.329 C 901.218 790.483 902.953 790.857 904.364 792.102 C 906.785 794.238 907.561 797.641 907.515 800.738 C 907.386 809.497 902.235 816.45 896.413 822.38 C 896.279 822.453 896.158 822.559 896.01 822.598 C 893.948 823.14 893.622 822.947 891.892 821.914 C 891.391 820.617 890.889 819.366 890.62 817.997 C 888.946 809.491 895.071 797.278 899.414 790.329 z"/>
<path transform="translate(0,0)" fill="rgb(255,255,255)" d="M 794.918 1570.29 C 799.751 1572.54 801.703 1576.9 803.893 1581.53 C 806.906 1587.89 810.195 1596.62 807.747 1603.48 C 805.868 1603.57 803.796 1603.66 802.07 1602.76 C 799.232 1601.27 796.977 1596.99 795.767 1594.14 C 792.743 1586.99 791.894 1577.46 794.918 1570.29 z"/>
<path transform="translate(0,0)" fill="rgb(255,255,255)" d="M 834.555 960.582 C 834.931 960.884 835.363 961.128 835.683 961.49 C 837.13 963.124 837.423 964.606 837.337 966.713 C 836.958 976.012 827.697 987.178 821.208 993.44 C 820.187 993.256 819.352 992.77 818.421 992.328 C 817.629 990.646 817.332 989.678 817.472 987.772 C 818.162 978.402 827.482 966.035 834.555 960.582 z"/>
<path transform="translate(0,0)" fill="rgb(255,255,255)" d="M 858.715 905.698 C 859.39 906.236 859.833 906.545 860.419 907.243 C 862.08 909.221 862.487 910.887 862.213 913.421 C 861.356 921.342 853.685 928.478 847.679 932.933 C 845.552 932.718 846.633 933.041 844.513 931.742 C 844.292 930.283 844.204 930.194 844.377 928.485 C 845.178 920.595 852.857 910.51 858.715 905.698 z"/>
<path transform="translate(0,0)" fill="rgb(50,50,68)" d="M 548.918 113.256 C 553.198 112.727 557.724 112.43 562.041 112.627 C 571.02 113.082 579.675 116.123 586.966 121.383 C 602.897 132.838 617.392 147.23 632.094 160.261 L 714.364 232.752 C 759.823 271.803 805.024 311.151 849.965 350.796 L 888.537 385.051 C 894.633 390.493 901.825 395.952 907.255 402.034 C 912.397 407.794 915.403 415.71 914.744 423.454 C 914.216 429.652 911.396 437.297 906.296 441.183 C 898.058 447.458 888.309 438.645 881.942 433.57 C 868.924 423.196 856.995 411.217 844.63 400.064 L 784.443 346.498 C 768.165 331.875 751.303 317.978 734.851 303.563 L 639.621 220.076 C 618.699 202.037 595.769 178.871 574.005 162.947 C 569.054 159.325 563.516 155.26 557.241 154.795 C 543.605 153.785 530.112 159.583 520.061 168.55 C 504.336 182.579 488.149 213.775 476.183 232.026 C 441.093 285.312 406.429 338.878 372.194 392.718 L 227.422 618.193 C 208.53 647.652 189.338 676.86 170.854 706.584 C 164.041 717.541 156.662 728.364 150.381 739.63 C 144.71 749.803 140.442 760.771 139.85 772.504 C 139.233 784.715 142.506 799.656 148.965 810.105 C 155.821 821.197 165.854 831.041 174.488 840.751 C 190.904 859.231 207.427 877.616 224.056 895.903 C 268.609 945.553 311.991 996.477 357.466 1045.26 L 472.667 1175.72 C 505.2 1212.98 536.907 1251.05 569.921 1287.88 C 581.251 1300.51 593.964 1309.49 611.433 1310.12 C 627.815 1310.71 640.178 1301.87 651.572 1291.32 C 648.978 1310.81 648.064 1330.48 647.205 1350.11 C 642.72 1351.78 638.273 1353.23 633.609 1354.31 C 614.526 1358.72 592.976 1356.63 576.506 1345.24 C 560.979 1334.51 529.819 1294.89 515.654 1278.44 L 444.837 1197.66 L 241.092 968.805 L 164.46 882.974 C 152.895 869.842 140.4 856.929 129.712 843.099 C 120.043 830.587 112.938 814.842 109.891 799.329 C 105.758 778.034 108.388 755.979 117.411 736.252 C 126.804 715.354 142.527 694.884 154.864 675.485 L 234.72 550.546 C 319.204 417.417 404.758 284.97 491.377 153.22 C 507.26 129.368 520.393 118.948 548.918 113.256 z"/>
<path transform="translate(0,0)" fill="rgb(50,50,68)" d="M 648.648 464.148 C 652.397 464.055 656.391 464.493 659.862 466.006 C 676.746 473.363 724.396 513.16 741.599 526.276 L 802.698 572.921 C 812.994 580.831 824.084 588.428 833.669 597.168 C 838.212 601.31 842.931 606.602 845.193 612.365 C 851.459 628.331 843.018 679.151 835.995 695.025 C 828.795 711.297 700.721 863.028 682.656 880.602 C 678.243 884.896 674.103 887.08 668.343 889.16 C 667.318 889.149 666.292 889.122 665.268 889.08 C 657.661 888.741 651.521 885.955 646.541 880.097 C 639.235 871.505 638.071 859.116 642.153 848.836 C 646.574 837.702 657.804 828.645 665.337 819.462 C 694.912 783.405 725.504 748.202 755.228 712.265 C 764.775 700.723 785.018 678.85 790.826 666.184 C 793.815 659.664 793.326 650.026 793.827 642.859 C 767.634 624.94 742.914 603.957 717.55 584.806 C 697.844 570.087 678.319 555.128 658.977 539.934 C 649.817 532.718 639.869 525.676 631.65 517.426 C 627.607 513.368 624.841 508.69 623.574 503.08 C 621.662 494.611 623.642 485.28 628.334 478.037 C 633.214 470.503 639.958 466.037 648.648 464.148 z"/>
<path transform="translate(0,0)" fill="rgb(50,50,68)" d="M 1541.32 901.547 C 1550.99 905.857 1560.4 913.236 1569.23 919.07 C 1609.03 945.419 1646.96 974.492 1682.75 1006.08 C 1710.7 1030.84 1739.01 1058.95 1761.26 1089.07 C 1801.45 1143.47 1832.68 1221.7 1836.58 1289.7 C 1839.2 1335.49 1831.83 1381.67 1812.54 1423.38 C 1807.73 1433.78 1802.33 1444.75 1794.49 1453.25 C 1789.4 1458.77 1782.82 1463.39 1775.04 1463.44 C 1745.68 1463.62 1722.78 1410.89 1711.5 1389.04 C 1703.73 1373.99 1696.16 1358.63 1686.72 1344.53 C 1672.7 1323.59 1655.36 1306.7 1637.04 1289.65 L 1623.47 1277.96 C 1620.47 1266.55 1619.5 1254.6 1618.67 1242.85 C 1658.14 1268.7 1693.9 1305.32 1717.23 1346.34 C 1731.1 1370.71 1743.11 1396.64 1758.85 1419.86 C 1762.58 1425.37 1767.28 1433.02 1774.1 1434.34 C 1780.38 1432.22 1783.68 1424.48 1786.47 1418.9 C 1803.22 1385.37 1802.43 1349.26 1797.67 1312.95 C 1784.31 1211.08 1734.69 1111.61 1667.02 1034.77 C 1649.31 1014.64 1630.07 995.893 1609.49 978.703 C 1597.57 968.679 1560.39 944.031 1554.04 934.851 C 1547.81 925.844 1544.79 911.915 1541.32 901.547 z"/>
<path transform="translate(0,0)" fill="rgb(50,50,68)" d="M 563.792 402.242 C 567.309 401.984 571.189 401.752 574.606 402.786 C 580.032 404.428 584.984 409.56 587.472 414.515 C 589.91 419.371 590.306 424.314 590.131 429.655 C 588.572 477.1 582.758 528.887 577.962 576.319 C 572.453 635.93 566.635 695.512 560.508 755.063 C 555.673 810.723 550.256 866.332 544.257 921.879 C 542.312 940.068 541.05 974.245 534.871 990.069 C 532.107 997.148 527.569 1000.51 520.709 1003.31 C 516.962 1003.51 512.597 1003.56 509.013 1002.33 C 503.898 1000.57 500.037 996.249 497.689 991.501 C 493.898 983.834 494.435 975.79 494.904 967.524 C 498.47 904.761 506.273 841.737 512.843 779.201 L 530.309 596.521 L 541.33 473.114 C 542.9 456.734 542.965 433.512 548.483 418.246 C 551.406 410.159 556.204 405.882 563.792 402.242 z"/>
<path transform="translate(0,0)" fill="rgb(50,50,68)" d="M 435.783 538.206 C 441.355 538.105 446.315 538.251 451.337 540.947 C 455.602 543.238 458.397 546.636 459.619 551.346 C 461.762 559.614 459.673 568.617 455.947 576.088 C 448.796 590.422 436.094 603.769 426.225 616.444 L 364.24 696.618 C 353.64 710.436 341.502 723.943 332.448 738.825 C 330.18 742.552 326.587 748.503 326.881 752.922 C 327.56 763.12 433.077 860.649 448.236 881.511 C 451.671 886.24 454.421 891.28 455.666 897.034 C 457.252 904.36 456.429 913.766 452.188 920.121 C 448.532 925.599 444.144 928.228 437.839 929.673 C 434.184 929.821 430.405 929.843 426.987 928.342 C 419.939 925.245 308.713 811.672 297.396 798.224 C 292.649 792.584 288.447 785.257 285.938 778.307 C 280.174 762.341 281.961 739.746 289.179 724.399 C 300.511 700.303 329.032 669.142 345.85 646.97 C 361.714 625.796 377.701 604.714 393.811 583.728 C 403.227 571.414 412.387 558.382 422.993 547.061 C 426.844 542.95 430.427 540.13 435.783 538.206 z"/>
<path transform="translate(0,0)" fill="rgb(50,50,68)" d="M 440.087 1301.81 L 442.404 1301.99 C 450.554 1308.37 458.407 1318.62 464.982 1326.68 C 360.543 1379.39 255.675 1431.26 150.388 1482.26 C 144.948 1480.14 130.083 1461.71 125.066 1456.45 C 138.721 1448.81 153.249 1442.61 167.258 1435.62 C 204.404 1416.96 241.786 1398.77 279.393 1381.06 C 333.227 1355.21 386.119 1327.44 440.087 1301.81 z"/>
<path transform="translate(0,0)" fill="rgb(50,50,68)" d="M 509.748 1377.9 C 516.346 1379.68 531.221 1398.11 536.197 1404 C 513.285 1417.27 488.649 1428.44 464.84 1440.03 C 429.289 1457.33 393.656 1474.8 358.439 1492.76 C 349.454 1485.41 341.346 1475.07 333.05 1466.78 C 357.511 1452.07 384.253 1440.25 409.857 1427.6 C 443.202 1411.13 476.248 1394.05 509.748 1377.9 z"/>
<path transform="translate(0,0)" fill="rgb(50,50,68)" d="M 379.935 1227.93 C 386.346 1232.02 393.464 1242.96 398.558 1248.92 C 373.205 1264.93 338.393 1279.56 311.153 1293.02 C 280.731 1308.04 251.085 1324.86 219.994 1338.49 L 199.237 1317.51 C 218.925 1306.36 239.612 1296.63 259.857 1286.52 L 379.935 1227.93 z"/>
<path transform="translate(0,0)" fill="rgb(50,50,68)" d="M 287.851 1488.89 C 296.71 1494.65 305.54 1507.54 312.477 1515.68 C 287.195 1529.61 259.76 1539.59 234.788 1554.26 C 225.869 1545.58 217.466 1536.2 208.877 1527.18 C 235.461 1514.96 261.314 1501.21 287.851 1488.89 z"/>
<path transform="translate(0,0)" fill="rgb(50,50,68)" d="M 318.752 1159.98 C 324.521 1161.12 332.179 1171.93 335.976 1176.31 C 302.337 1194.92 266.728 1212 231.8 1228.02 C 228.245 1226.78 219.266 1214.62 215.607 1211.06 C 228.758 1201.89 244.429 1195.38 258.805 1188.28 C 278.57 1178.53 298.263 1168.14 318.752 1159.98 z"/>
<path transform="translate(0,0)" fill="rgb(50,50,68)" d="M 702.561 1809.44 C 727.191 1808.34 833.277 1813.53 850.82 1825.57 C 853.022 1827.08 853.68 1828.1 854.185 1830.66 C 852.457 1832.95 852.032 1832.68 849.172 1833.26 C 826.084 1832.21 802.676 1827.94 779.796 1824.71 C 752.164 1820.8 723.674 1817.63 696.543 1811.18 C 698.092 1809.73 700.488 1809.8 702.561 1809.44 z"/>
<path transform="translate(0,0)" fill="rgb(50,50,68)" d="M 367.056 1607.48 C 389.245 1606.63 475.362 1612.05 492.257 1622.19 C 496.561 1624.77 497.661 1627.48 498.958 1632.19 C 497.172 1632.82 495.436 1633.17 493.551 1633.28 C 479.859 1634.05 375.887 1615.26 367.056 1607.48 z"/>
<path transform="translate(0,0)" fill="rgb(50,50,68)" d="M 794.784 1851.3 C 818.098 1849.05 881.499 1858.46 904.631 1866.52 C 910.927 1868.72 918.018 1871.51 921.098 1877.81 C 906.904 1880.25 842.046 1864.91 823.877 1861.03 C 816.834 1859.53 798.559 1857.13 794.784 1851.3 z"/>
<path transform="translate(0,0)" fill="rgb(50,50,68)" d="M 175.74 1228.97 C 181.928 1232.57 187.347 1240.14 191.811 1245.69 C 177.714 1252.62 163.741 1259.8 149.899 1267.22 C 145.067 1266.22 137.221 1254.5 134.032 1250.27 C 147 1241.98 161.893 1235.66 175.74 1228.97 z"/>
<path transform="translate(0,0)" fill="rgb(50,50,68)" d="M 429.452 1725.52 C 446.311 1724.68 489.341 1724.52 502.09 1735.4 C 504.221 1737.22 504.263 1737.82 504.509 1740.41 L 502.329 1742.98 C 491.229 1742.63 434.894 1732.64 427.38 1726.21 L 429.452 1725.52 z"/>
<path transform="translate(0,0)" fill="rgb(50,50,68)" d="M 617.101 1770.45 C 643.613 1769.26 701.853 1776.6 723.922 1788.77 C 710.009 1790.75 625.923 1776.87 617.101 1770.45 z"/>
<path transform="translate(0,0)" fill="rgb(50,50,68)" d="M 451.361 1589.54 C 470.829 1587.71 513.443 1593.41 532.959 1597.82 C 537.646 1598.88 542.761 1599.78 545.505 1604.06 C 542.501 1604.72 539.882 1604.94 536.802 1604.84 C 523.011 1604.4 458.683 1597.27 451.361 1589.54 z"/>
</svg>